<svg width="65" height="20" viewBox="0 0 65 20" fill="none" xmlns="http://www.w3.org/2000/svg">
<g clip-path="url(#clip0_820_287)">
<path d="M14.4623 6.18212V19.6256H10.431V18.3617C9.54427 19.3833 8.22801 20.0001 6.42434 20.0001C2.90238 20.0001 0 16.9105 0 12.9039C0 8.89725 2.90238 5.80762 6.42434 5.80762C8.22525 5.80762 9.54427 6.42444 10.431 7.44606V6.18212H14.4623ZM10.431 12.9039C10.431 10.8882 9.08716 9.63799 7.23117 9.63799C5.37519 9.63799 4.03139 10.8882 4.03139 12.9039C4.03139 14.9196 5.37794 16.1835 7.23117 16.1835C9.0844 16.1835 10.431 14.9196 10.431 12.9039Z" fill="#2026D2"/>
<path d="M22.5253 10.0541V14.8125C22.5253 15.969 23.5221 16.0764 25.2955 15.969V19.6259C20.0277 20.1766 18.4939 18.5768 18.4939 14.8125V10.0541H16.3433V6.18243H18.4939V3.62977L22.5253 2.4209V6.18243H25.2955V10.0541H22.5253Z" fill="#2026D2"/>
<path d="M27.5781 0H31.6123V19.6255H27.5781V0Z" fill="#2026D2"/>
<path d="M48.3602 6.18212V19.6256H44.3343V18.3617C43.4476 19.3833 42.1313 20.0001 40.3304 20.0001C36.8085 20.0001 33.9033 16.9105 33.9033 12.9039C33.9033 8.89725 36.8085 5.80762 40.3304 5.80762C42.1313 5.80762 43.4476 6.42444 44.3343 7.44606V6.18212H48.3602ZM44.3343 12.9039C44.3343 10.8882 42.9822 9.63799 41.129 9.63799C39.2758 9.63799 37.9292 10.9019 37.9292 12.9176C37.9292 14.9333 39.273 16.1973 41.129 16.1973C42.985 16.1973 44.3343 14.9196 44.3343 12.9039Z" fill="#2026D2"/>
<path d="M64.2187 11.3731V19.6341H60.1873V11.9624C60.1873 10.3102 59.1382 9.5171 57.8467 9.5171C56.368 9.5171 55.3463 10.3762 55.3463 12.2873V19.6259H51.3149V6.18239H55.3491V7.43532C56.0761 6.44124 57.4199 5.79688 59.2042 5.79688C61.9056 5.80789 64.2187 7.74373 64.2187 11.3731Z" fill="#2026D2"/>
</g>
<defs>
<clipPath id="clip0_820_287">
<rect width="64.2187" height="20" fill="white"/>
</clipPath>
</defs>
</svg>
